<svg xmlns="http://www.w3.org/2000/svg" xmlns:xlink="http://www.w3.org/1999/xlink" width="500" zoomAndPan="magnify" viewBox="0 0 375 374.999991" height="500" preserveAspectRatio="xMidYMid meet" version="1.0"><path fill="#000000" d="M 265.367188 131.25 L 220.3125 131.25 L 220.3125 93.75 C 220.3125 74.398438 221.886719 62.210938 249.617188 62.210938 L 265.894531 62.210938 C 276.242188 62.210938 284.644531 53.8125 284.644531 43.460938 L 284.644531 19.949219 C 284.644531 10.144531 277.125 1.761719 267.335938 1.105469 C 256.011719 0.335938 244.667969 -0.0195312 233.304688 0 C 182.4375 0 145.3125 31.070312 145.3125 88.105469 L 145.3125 131.25 L 107.8125 131.25 C 97.460938 131.25 89.0625 139.648438 89.0625 150 L 89.0625 187.5 C 89.0625 197.851562 97.460938 206.25 107.8125 206.25 L 145.3125 206.230469 L 145.3125 356.25 C 145.3125 366.601562 153.710938 375 164.0625 375 L 201.5625 375 C 211.914062 375 220.3125 366.601562 220.3125 356.25 L 220.3125 206.195312 L 261.074219 206.175781 C 270.601562 206.175781 278.605469 199.03125 279.695312 189.5625 L 283.988281 152.136719 C 285.28125 141.019531 276.582031 131.25 265.367188 131.25 Z M 265.367188 131.25 " fill-opacity="1" fill-rule="nonzero"/></svg>